# xmcd
#
# Track frame offsets:
#	150
#	34880
#	57390
#	80645
#	119475
#	160065
#	192840
#
# Disc length: 3148 seconds
#
# Revision: 2
# Processed by: cddbd v1.5.1PL2 Copyright (c) Steve Scherf et al.
# Submitted via: EasyCDDAExtractor 8.0.2.1
#
DISCID=5b0c4a07
DTITLE=Deep Purple - SAP Arena Mannheim 17-02-06 Disc 2
DYEAR=2006
DGENRE=Hard Rock
TTITLE0=Perfect Strangers
TTITLE1=Kiss Tomorrow Goodbye
TTITLE2=Space Truckin
TTITLE3=Highway Star
TTITLE4=Smoke On The Water
TTITLE5=Hush
TTITLE6=Black Night
EXTD=
EXTT0=
EXTT1=
EXTT2=
EXTT3=
EXTT4=
EXTT5=
EXTT6=
PLAYORDER=
